<svg width="508" height="333" viewBox="0 0 508 333" fill="none" xmlns="http://www.w3.org/2000/svg">
<mask id="path-1-inside-1_6_1240" fill="white">
<path d="M1 1.87012H508V286.977H1V1.87012Z"/>
</mask>
<path d="M1 286.977H-0.290076V288.267H1V286.977ZM508 285.687H1V288.267H508V285.687ZM2.29008 286.977V1.87012H-0.290076V286.977H2.29008Z" fill="#2B2B2B" mask="url(#path-1-inside-1_6_1240)"/>
<circle cx="453.817" cy="43.1525" r="6.95038" fill="#1B1B1B" stroke="#A0A0A0"/>
<circle cx="488.649" cy="8.3205" r="6.95038" fill="#1B1B1B" stroke="#A0A0A0"/>
<circle cx="475.748" cy="49.6027" r="6.95038" fill="#1B1B1B" stroke="#A0A0A0"/>
<circle cx="402.214" cy="81.8547" r="6.95038" fill="#1B1B1B" stroke="#A0A0A0"/>
<circle cx="375.122" cy="130.878" r="6.95038" fill="#1B1B1B" stroke="#A0A0A0"/>
<circle cx="219.023" cy="130.878" r="6.95038" fill="#1B1B1B" stroke="#777777"/>
<circle cx="198.382" cy="151.519" r="6.95038" fill="#1B1B1B" stroke="#777777"/>
<circle cx="133.878" cy="163.13" r="6.95038" fill="#1B1B1B" stroke="#777777"/>
<circle cx="65.5036" cy="209.572" r="6.95038" fill="#1B1B1B" stroke="#777777"/>
<path d="M20.1899 315.654C20.1899 316.039 19.8472 316.339 19.4617 316.339H3.31307L9.30991 322.764C9.56691 323.021 9.56691 323.45 9.26707 323.707C9.13857 323.835 8.96723 323.878 8.79589 323.878C8.58172 323.878 8.41038 323.835 8.28188 323.664L1.17134 316.125C0.914331 315.868 0.914331 315.482 1.17134 315.225L8.28188 307.686C8.53888 307.387 8.96723 307.387 9.26707 307.644C9.56691 307.901 9.56691 308.329 9.30991 308.586L3.31307 314.968H19.4617C19.8472 314.968 20.1899 315.311 20.1899 315.654Z" fill="#A52225"/>
<path d="M32.3761 311.294V319.042H36.1651V320.504H30.7016V311.294H32.3761ZM40.2824 320.703C39.6958 320.703 39.159 320.551 38.6717 320.248C38.1845 319.946 37.7943 319.522 37.501 318.978C37.2077 318.43 37.0611 317.789 37.0611 317.056C37.0611 316.299 37.2053 315.648 37.4939 315.104C37.7872 314.56 38.1774 314.144 38.6646 313.855C39.1519 313.567 39.6911 313.423 40.2824 313.423C40.8311 313.423 41.3041 313.534 41.7015 313.756C42.1036 313.974 42.4252 314.272 42.6665 314.65C42.9124 315.024 43.078 315.447 43.1631 315.92C43.2483 316.393 43.253 316.881 43.1773 317.382H38.395V316.474H41.9924L41.666 316.687C41.6802 316.464 41.6684 316.24 41.6305 316.013C41.5974 315.785 41.5312 315.577 41.4319 315.388C41.3325 315.199 41.1906 315.048 41.0061 314.934C40.8264 314.816 40.5946 314.757 40.3108 314.757C39.9702 314.757 39.6817 314.842 39.4451 315.012C39.2086 315.182 39.0289 315.414 38.9059 315.707C38.7829 316.001 38.7214 316.332 38.7214 316.701V317.368C38.7214 317.756 38.7782 318.099 38.8917 318.397C39.01 318.695 39.1826 318.929 39.4097 319.099C39.6414 319.269 39.9324 319.354 40.2824 319.354C40.6088 319.354 40.8831 319.279 41.1055 319.127C41.3278 318.976 41.4697 318.749 41.5312 318.446H43.2199C43.1489 318.891 42.981 319.283 42.7161 319.624C42.456 319.96 42.1177 320.225 41.7015 320.419C41.2852 320.608 40.8122 320.703 40.2824 320.703ZM47.8074 320.703C47.1452 320.703 46.5752 320.613 46.0974 320.433C45.6244 320.248 45.2602 319.986 45.0047 319.645C44.7493 319.3 44.6192 318.886 44.6145 318.404H46.1613C46.1755 318.744 46.3103 318.993 46.5657 319.149C46.8212 319.305 47.1688 319.383 47.6088 319.383C47.85 319.383 48.0629 319.347 48.2473 319.276C48.4365 319.205 48.5832 319.108 48.6873 318.985C48.7913 318.862 48.8434 318.725 48.8434 318.574C48.8434 318.38 48.7724 318.229 48.6305 318.12C48.4933 318.006 48.271 317.902 47.9635 317.808L46.4593 317.268C45.92 317.074 45.5061 316.819 45.2176 316.502C44.929 316.185 44.7848 315.807 44.7848 315.367C44.7848 314.785 45.0473 314.317 45.5724 313.962C46.1022 313.602 46.8093 313.423 47.6939 313.423C48.5737 313.423 49.2525 313.617 49.7303 314.005C50.2128 314.388 50.4611 314.875 50.4753 315.466H48.9001C48.8765 315.239 48.7677 315.059 48.5737 314.927C48.3798 314.794 48.0865 314.728 47.6939 314.728C47.3391 314.728 47.06 314.802 46.8566 314.948C46.658 315.09 46.5586 315.258 46.5586 315.452C46.5586 315.778 46.8377 316.024 47.3959 316.19L49.0278 316.8C49.5576 316.98 49.9692 317.212 50.2624 317.495C50.5557 317.779 50.7024 318.139 50.7024 318.574C50.7024 318.938 50.5794 319.283 50.3334 319.61C50.0921 319.932 49.7539 320.194 49.3187 320.397C48.8836 320.601 48.3798 320.703 47.8074 320.703ZM55.2909 320.703C54.6286 320.703 54.0586 320.613 53.5809 320.433C53.1078 320.248 52.7436 319.986 52.4882 319.645C52.2327 319.3 52.1027 318.886 52.0979 318.404H53.6447C53.6589 318.744 53.7937 318.993 54.0492 319.149C54.3046 319.305 54.6523 319.383 55.0922 319.383C55.3334 319.383 55.5463 319.347 55.7308 319.276C55.92 319.205 56.0666 319.108 56.1707 318.985C56.2748 318.862 56.3268 318.725 56.3268 318.574C56.3268 318.38 56.2558 318.229 56.1139 318.12C55.9768 318.006 55.7544 317.902 55.447 317.808L53.9427 317.268C53.4035 317.074 52.9896 316.819 52.701 316.502C52.4125 316.185 52.2682 315.807 52.2682 315.367C52.2682 314.785 52.5308 314.317 53.0558 313.962C53.5856 313.602 54.2928 313.423 55.1773 313.423C56.0572 313.423 56.736 313.617 57.2137 314.005C57.6962 314.388 57.9446 314.875 57.9588 315.466H56.3836C56.3599 315.239 56.2511 315.059 56.0572 314.927C55.8632 314.794 55.57 314.728 55.1773 314.728C54.8226 314.728 54.5435 314.802 54.3401 314.948C54.1414 315.09 54.0421 315.258 54.0421 315.452C54.0421 315.778 54.3212 316.024 54.8793 316.19L56.5113 316.8C57.0411 316.98 57.4526 317.212 57.7459 317.495C58.0392 317.779 58.1858 318.139 58.1858 318.574C58.1858 318.938 58.0628 319.283 57.8168 319.61C57.5756 319.932 57.2374 320.194 56.8022 320.397C56.367 320.601 55.8632 320.703 55.2909 320.703ZM63.7809 320.504V311.294H69.6985V312.742H65.4554V315.168H69.443V316.616H65.4554V319.042H69.6985V320.504H63.7809ZM71.0312 320.504L73.7132 317.07L71.0312 313.593H73.0888L74.7776 315.807L76.3811 313.593H78.4246L75.7567 317.07L78.4246 320.504H76.3811L74.664 318.29L73.0888 320.504H71.0312ZM83.4299 320.703C82.9237 320.703 82.4933 320.594 82.1385 320.376C81.7837 320.159 81.5117 319.83 81.3225 319.39C81.138 318.945 81.0458 318.389 81.0458 317.723H81.656C81.656 318.03 81.727 318.293 81.8689 318.51C82.0108 318.728 82.1976 318.896 82.4294 319.014C82.6659 319.127 82.919 319.184 83.1886 319.184C83.4677 319.184 83.7421 319.108 84.0117 318.957C84.286 318.801 84.5131 318.567 84.6929 318.255C84.8726 317.938 84.9625 317.538 84.9625 317.056C84.9625 316.616 84.8868 316.237 84.7354 315.92C84.5841 315.599 84.3759 315.353 84.111 315.182C83.8509 315.012 83.5529 314.927 83.217 314.927C82.9332 314.927 82.673 314.991 82.4365 315.118C82.2 315.246 82.0108 315.433 81.8689 315.679C81.727 315.92 81.656 316.214 81.656 316.559H81.0458C81.0458 315.835 81.157 315.244 81.3793 314.785C81.6016 314.321 81.8996 313.978 82.2733 313.756C82.647 313.534 83.0562 313.423 83.5008 313.423C84.0448 313.423 84.5557 313.567 85.0334 313.855C85.5159 314.144 85.9062 314.56 86.2042 315.104C86.5022 315.644 86.6512 316.294 86.6512 317.056C86.6512 317.822 86.4998 318.477 86.1971 319.021C85.8943 319.565 85.497 319.981 85.005 320.27C84.5178 320.558 83.9928 320.703 83.4299 320.703ZM79.9815 323.867V313.621H81.358L81.656 315.324V323.867H79.9815ZM91.2114 320.703C90.6249 320.703 90.088 320.551 89.6008 320.248C89.1136 319.946 88.7233 319.522 88.43 318.978C88.1368 318.43 87.9901 317.789 87.9901 317.056C87.9901 316.299 88.1344 315.648 88.4229 315.104C88.7162 314.56 89.1065 314.144 89.5937 313.855C90.0809 313.567 90.6202 313.423 91.2114 313.423C91.7601 313.423 92.2332 313.534 92.6305 313.756C93.0326 313.974 93.3543 314.272 93.5955 314.65C93.8415 315.024 94.007 315.447 94.0922 315.92C94.1773 316.393 94.1821 316.881 94.1064 317.382H89.3241V316.474H92.9214L92.595 316.687C92.6092 316.464 92.5974 316.24 92.5596 316.013C92.5265 315.785 92.4602 315.577 92.3609 315.388C92.2616 315.199 92.1197 315.048 91.9352 314.934C91.7554 314.816 91.5236 314.757 91.2398 314.757C90.8992 314.757 90.6107 314.842 90.3742 315.012C90.1377 315.182 89.9579 315.414 89.8349 315.707C89.7119 316.001 89.6504 316.332 89.6504 316.701V317.368C89.6504 317.756 89.7072 318.099 89.8207 318.397C89.939 318.695 90.1116 318.929 90.3387 319.099C90.5705 319.269 90.8614 319.354 91.2114 319.354C91.5378 319.354 91.8122 319.279 92.0345 319.127C92.2568 318.976 92.3987 318.749 92.4602 318.446H94.1489C94.078 318.891 93.9101 319.283 93.6452 319.624C93.385 319.96 93.0468 320.225 92.6305 320.419C92.2143 320.608 91.7412 320.703 91.2114 320.703ZM100.893 320.504V316.474C100.893 315.963 100.77 315.577 100.525 315.317C100.279 315.057 99.9569 314.927 99.5595 314.927C99.2237 314.927 98.9257 315.019 98.6655 315.204C98.4101 315.388 98.209 315.667 98.0624 316.041C97.9158 316.41 97.8424 316.871 97.8424 317.424H97.289C97.289 316.53 97.4002 315.788 97.6225 315.197C97.8448 314.601 98.1594 314.156 98.5662 313.863C98.973 313.569 99.4507 313.423 99.9994 313.423C100.567 313.423 101.04 313.55 101.419 313.806C101.802 314.057 102.088 314.411 102.277 314.87C102.471 315.329 102.568 315.864 102.568 316.474V320.504H100.893ZM96.1679 320.504V313.621H97.6296L97.8424 314.984V320.504H96.1679ZM107.578 320.703C106.916 320.703 106.346 320.613 105.868 320.433C105.395 320.248 105.031 319.986 104.775 319.645C104.52 319.3 104.39 318.886 104.385 318.404H105.932C105.946 318.744 106.081 318.993 106.336 319.149C106.592 319.305 106.939 319.383 107.379 319.383C107.621 319.383 107.833 319.347 108.018 319.276C108.207 319.205 108.354 319.108 108.458 318.985C108.562 318.862 108.614 318.725 108.614 318.574C108.614 318.38 108.543 318.229 108.401 318.12C108.264 318.006 108.042 317.902 107.734 317.808L106.23 317.268C105.691 317.074 105.277 316.819 104.988 316.502C104.7 316.185 104.555 315.807 104.555 315.367C104.555 314.785 104.818 314.317 105.343 313.962C105.873 313.602 106.58 313.423 107.464 313.423C108.344 313.423 109.023 313.617 109.501 314.005C109.983 314.388 110.232 314.875 110.246 315.466H108.671C108.647 315.239 108.538 315.059 108.344 314.927C108.15 314.794 107.857 314.728 107.464 314.728C107.11 314.728 106.831 314.802 106.627 314.948C106.429 315.09 106.329 315.258 106.329 315.452C106.329 315.778 106.608 316.024 107.166 316.19L108.798 316.8C109.328 316.98 109.74 317.212 110.033 317.495C110.326 317.779 110.473 318.139 110.473 318.574C110.473 318.938 110.35 319.283 110.104 319.61C109.863 319.932 109.525 320.194 109.089 320.397C108.654 320.601 108.15 320.703 107.578 320.703ZM113.472 312.358C113.146 312.358 112.89 312.273 112.706 312.103C112.526 311.928 112.436 311.687 112.436 311.379C112.436 311.081 112.526 310.845 112.706 310.67C112.89 310.49 113.146 310.4 113.472 310.4C113.794 310.4 114.047 310.49 114.231 310.67C114.416 310.845 114.508 311.081 114.508 311.379C114.508 311.687 114.416 311.928 114.231 312.103C114.047 312.273 113.794 312.358 113.472 312.358ZM112.635 320.504V313.593H114.309V320.504H112.635ZM116 313.621H117.93L119.576 319.071H119.448L121.094 313.621H123.024L120.456 320.504H118.568L116 313.621ZM127.077 320.703C126.49 320.703 125.953 320.551 125.466 320.248C124.979 319.946 124.588 319.522 124.295 318.978C124.002 318.43 123.855 317.789 123.855 317.056C123.855 316.299 124 315.648 124.288 315.104C124.581 314.56 124.972 314.144 125.459 313.855C125.946 313.567 126.485 313.423 127.077 313.423C127.625 313.423 128.098 313.534 128.496 313.756C128.898 313.974 129.219 314.272 129.461 314.65C129.707 315.024 129.872 315.447 129.957 315.92C130.042 316.393 130.047 316.881 129.971 317.382H125.189V316.474H128.787L128.46 316.687C128.474 316.464 128.463 316.24 128.425 316.013C128.392 315.785 128.325 315.577 128.226 315.388C128.127 315.199 127.985 315.048 127.8 314.934C127.621 314.816 127.389 314.757 127.105 314.757C126.764 314.757 126.476 314.842 126.239 315.012C126.003 315.182 125.823 315.414 125.7 315.707C125.577 316.001 125.516 316.332 125.516 316.701V317.368C125.516 317.756 125.572 318.099 125.686 318.397C125.804 318.695 125.977 318.929 126.204 319.099C126.436 319.269 126.727 319.354 127.077 319.354C127.403 319.354 127.677 319.279 127.9 319.127C128.122 318.976 128.264 318.749 128.325 318.446H130.014C129.943 318.891 129.775 319.283 129.51 319.624C129.25 319.96 128.912 320.225 128.496 320.419C128.079 320.608 127.606 320.703 127.077 320.703ZM139.326 320.703C138.782 320.703 138.262 320.641 137.765 320.518C137.273 320.395 136.836 320.211 136.452 319.965C136.074 319.714 135.774 319.395 135.551 319.007C135.334 318.614 135.225 318.153 135.225 317.623H136.871C136.871 317.992 136.97 318.29 137.169 318.517C137.368 318.744 137.656 318.91 138.035 319.014C138.413 319.118 138.872 319.17 139.411 319.17C139.842 319.17 140.194 319.118 140.469 319.014C140.743 318.91 140.944 318.77 141.072 318.595C141.204 318.415 141.27 318.219 141.27 318.006C141.27 317.737 141.18 317.503 141.001 317.304C140.826 317.105 140.57 316.947 140.234 316.828L139.227 316.445V314.998L141.043 315.636C141.753 315.882 142.283 316.195 142.633 316.573C142.983 316.951 143.158 317.443 143.158 318.049C143.158 318.494 143.02 318.919 142.746 319.326C142.477 319.728 142.058 320.059 141.49 320.319C140.927 320.575 140.206 320.703 139.326 320.703ZM138.602 321.937V310.045H139.794V321.937H138.602ZM138.929 316.474L137.893 316.119C137.098 315.849 136.486 315.528 136.055 315.154C135.625 314.78 135.409 314.269 135.409 313.621C135.409 312.874 135.726 312.268 136.36 311.805C136.999 311.341 137.926 311.11 139.142 311.11C140.272 311.11 141.131 311.356 141.717 311.847C142.309 312.335 142.675 312.997 142.817 313.834H141.157C141.086 313.47 140.878 313.165 140.532 312.919C140.192 312.668 139.719 312.543 139.113 312.543C138.489 312.543 138.018 312.649 137.701 312.862C137.384 313.075 137.226 313.347 137.226 313.678C137.226 313.924 137.302 314.125 137.453 314.281C137.609 314.433 137.85 314.567 138.177 314.686L138.929 314.998V316.474Z" fill="#A52225"/>
<path d="M341.938 311.294H344.336L346.933 316.928H346.791L349.388 311.294H351.701V320.504H350.013V313.224H350.268L347.401 319.496H346.309L343.456 313.252H343.612V320.504H341.938V311.294ZM357.051 320.703C356.422 320.703 355.852 320.568 355.341 320.298C354.835 320.029 354.433 319.626 354.135 319.092C353.837 318.553 353.688 317.879 353.688 317.07C353.688 316.247 353.837 315.565 354.135 315.026C354.433 314.487 354.835 314.085 355.341 313.82C355.852 313.555 356.422 313.423 357.051 313.423C357.671 313.423 358.232 313.555 358.733 313.82C359.239 314.085 359.641 314.487 359.939 315.026C360.237 315.565 360.386 316.247 360.386 317.07C360.386 317.879 360.237 318.553 359.939 319.092C359.641 319.626 359.239 320.029 358.733 320.298C358.232 320.568 357.671 320.703 357.051 320.703ZM356.995 319.241C357.326 319.241 357.619 319.161 357.875 319C358.135 318.834 358.338 318.591 358.485 318.269C358.636 317.947 358.712 317.547 358.712 317.07C358.712 316.341 358.568 315.793 358.279 315.424C357.995 315.055 357.605 314.87 357.108 314.87C356.772 314.87 356.474 314.953 356.214 315.118C355.954 315.279 355.748 315.523 355.597 315.849C355.45 316.176 355.377 316.583 355.377 317.07C355.377 317.789 355.521 318.33 355.81 318.695C356.103 319.059 356.498 319.241 356.995 319.241ZM362.379 320.504V313.593H364.053V320.504H362.379ZM363.642 317.481C363.642 316.578 363.744 315.83 363.947 315.239C364.15 314.648 364.422 314.21 364.763 313.926C365.108 313.638 365.491 313.494 365.912 313.494C366.026 313.494 366.132 313.501 366.232 313.515C366.336 313.529 366.437 313.55 366.537 313.579L366.508 315.253C366.385 315.225 366.253 315.201 366.111 315.182C365.969 315.163 365.841 315.154 365.728 315.154C365.359 315.154 365.049 315.244 364.798 315.424C364.552 315.599 364.366 315.859 364.238 316.204C364.115 316.549 364.053 316.975 364.053 317.481H363.642ZM370.518 320.703C369.932 320.703 369.395 320.551 368.908 320.248C368.42 319.946 368.03 319.522 367.737 318.978C367.444 318.43 367.297 317.789 367.297 317.056C367.297 316.299 367.441 315.648 367.73 315.104C368.023 314.56 368.413 314.144 368.901 313.855C369.388 313.567 369.927 313.423 370.518 313.423C371.067 313.423 371.54 313.534 371.937 313.756C372.34 313.974 372.661 314.272 372.902 314.65C373.148 315.024 373.314 315.447 373.399 315.92C373.484 316.393 373.489 316.881 373.413 317.382H368.631V316.474H372.228L371.902 316.687C371.916 316.464 371.904 316.24 371.867 316.013C371.833 315.785 371.767 315.577 371.668 315.388C371.568 315.199 371.427 315.048 371.242 314.934C371.062 314.816 370.831 314.757 370.547 314.757C370.206 314.757 369.918 314.842 369.681 315.012C369.445 315.182 369.265 315.414 369.142 315.707C369.019 316.001 368.957 316.332 368.957 316.701V317.368C368.957 317.756 369.014 318.099 369.128 318.397C369.246 318.695 369.419 318.929 369.646 319.099C369.877 319.269 370.168 319.354 370.518 319.354C370.845 319.354 371.119 319.279 371.341 319.127C371.564 318.976 371.706 318.749 371.767 318.446H373.456C373.385 318.891 373.217 319.283 372.952 319.624C372.692 319.96 372.354 320.225 371.937 320.419C371.521 320.608 371.048 320.703 370.518 320.703ZM379.05 320.504V311.294H384.968V312.742H380.724V315.168H384.712V316.616H380.724V319.042H384.968V320.504H379.05ZM386.3 320.504L388.982 317.07L386.3 313.593H388.358L390.047 315.807L391.65 313.593H393.694L391.026 317.07L393.694 320.504H391.65L389.933 318.29L388.358 320.504H386.3ZM398.699 320.703C398.193 320.703 397.762 320.594 397.408 320.376C397.053 320.159 396.781 319.83 396.592 319.39C396.407 318.945 396.315 318.389 396.315 317.723H396.925C396.925 318.03 396.996 318.293 397.138 318.51C397.28 318.728 397.467 318.896 397.698 319.014C397.935 319.127 398.188 319.184 398.458 319.184C398.737 319.184 399.011 319.108 399.281 318.957C399.555 318.801 399.782 318.567 399.962 318.255C400.142 317.938 400.232 317.538 400.232 317.056C400.232 316.616 400.156 316.237 400.005 315.92C399.853 315.599 399.645 315.353 399.38 315.182C399.12 315.012 398.822 314.927 398.486 314.927C398.202 314.927 397.942 314.991 397.706 315.118C397.469 315.246 397.28 315.433 397.138 315.679C396.996 315.92 396.925 316.214 396.925 316.559H396.315C396.315 315.835 396.426 315.244 396.648 314.785C396.871 314.321 397.169 313.978 397.542 313.756C397.916 313.534 398.325 313.423 398.77 313.423C399.314 313.423 399.825 313.567 400.303 313.855C400.785 314.144 401.175 314.56 401.473 315.104C401.771 315.644 401.92 316.294 401.92 317.056C401.92 317.822 401.769 318.477 401.466 319.021C401.163 319.565 400.766 319.981 400.274 320.27C399.787 320.558 399.262 320.703 398.699 320.703ZM395.251 323.867V313.621H396.627L396.925 315.324V323.867H395.251ZM406.481 320.703C405.894 320.703 405.357 320.551 404.87 320.248C404.383 319.946 403.992 319.522 403.699 318.978C403.406 318.43 403.259 317.789 403.259 317.056C403.259 316.299 403.403 315.648 403.692 315.104C403.985 314.56 404.376 314.144 404.863 313.855C405.35 313.567 405.889 313.423 406.481 313.423C407.029 313.423 407.502 313.534 407.9 313.756C408.302 313.974 408.623 314.272 408.865 314.65C409.111 315.024 409.276 315.447 409.361 315.92C409.446 316.393 409.451 316.881 409.375 317.382H404.593V316.474H408.191L407.864 316.687C407.878 316.464 407.866 316.24 407.829 316.013C407.796 315.785 407.729 315.577 407.63 315.388C407.531 315.199 407.389 315.048 407.204 314.934C407.024 314.816 406.793 314.757 406.509 314.757C406.168 314.757 405.88 314.842 405.643 315.012C405.407 315.182 405.227 315.414 405.104 315.707C404.981 316.001 404.92 316.332 404.92 316.701V317.368C404.92 317.756 404.976 318.099 405.09 318.397C405.208 318.695 405.381 318.929 405.608 319.099C405.84 319.269 406.13 319.354 406.481 319.354C406.807 319.354 407.081 319.279 407.304 319.127C407.526 318.976 407.668 318.749 407.729 318.446H409.418C409.347 318.891 409.179 319.283 408.914 319.624C408.654 319.96 408.316 320.225 407.9 320.419C407.483 320.608 407.01 320.703 406.481 320.703ZM416.163 320.504V316.474C416.163 315.963 416.04 315.577 415.794 315.317C415.548 315.057 415.226 314.927 414.829 314.927C414.493 314.927 414.195 315.019 413.935 315.204C413.679 315.388 413.478 315.667 413.331 316.041C413.185 316.41 413.112 316.871 413.112 317.424H412.558C412.558 316.53 412.669 315.788 412.892 315.197C413.114 314.601 413.428 314.156 413.835 313.863C414.242 313.569 414.72 313.423 415.269 313.423C415.836 313.423 416.309 313.55 416.688 313.806C417.071 314.057 417.357 314.411 417.546 314.87C417.74 315.329 417.837 315.864 417.837 316.474V320.504H416.163ZM411.437 320.504V313.621H412.899L413.112 314.984V320.504H411.437ZM422.847 320.703C422.185 320.703 421.615 320.613 421.137 320.433C420.664 320.248 420.3 319.986 420.044 319.645C419.789 319.3 419.659 318.886 419.654 318.404H421.201C421.215 318.744 421.35 318.993 421.605 319.149C421.861 319.305 422.209 319.383 422.648 319.383C422.89 319.383 423.103 319.347 423.287 319.276C423.476 319.205 423.623 319.108 423.727 318.985C423.831 318.862 423.883 318.725 423.883 318.574C423.883 318.38 423.812 318.229 423.67 318.12C423.533 318.006 423.311 317.902 423.003 317.808L421.499 317.268C420.96 317.074 420.546 316.819 420.257 316.502C419.969 316.185 419.824 315.807 419.824 315.367C419.824 314.785 420.087 314.317 420.612 313.962C421.142 313.602 421.849 313.423 422.734 313.423C423.613 313.423 424.292 313.617 424.77 314.005C425.252 314.388 425.501 314.875 425.515 315.466H423.94C423.916 315.239 423.807 315.059 423.613 314.927C423.419 314.794 423.126 314.728 422.734 314.728C422.379 314.728 422.1 314.802 421.896 314.948C421.698 315.09 421.598 315.258 421.598 315.452C421.598 315.778 421.877 316.024 422.436 316.19L424.068 316.8C424.597 316.98 425.009 317.212 425.302 317.495C425.595 317.779 425.742 318.139 425.742 318.574C425.742 318.938 425.619 319.283 425.373 319.61C425.132 319.932 424.794 320.194 424.358 320.397C423.923 320.601 423.419 320.703 422.847 320.703ZM428.741 312.358C428.415 312.358 428.159 312.273 427.975 312.103C427.795 311.928 427.705 311.687 427.705 311.379C427.705 311.081 427.795 310.845 427.975 310.67C428.159 310.49 428.415 310.4 428.741 310.4C429.063 310.4 429.316 310.49 429.5 310.67C429.685 310.845 429.777 311.081 429.777 311.379C429.777 311.687 429.685 311.928 429.5 312.103C429.316 312.273 429.063 312.358 428.741 312.358ZM427.904 320.504V313.593H429.578V320.504H427.904ZM431.269 313.621H433.199L434.845 319.071H434.717L436.363 313.621H438.293L435.725 320.504H433.837L431.269 313.621ZM442.346 320.703C441.759 320.703 441.222 320.551 440.735 320.248C440.248 319.946 439.858 319.522 439.564 318.978C439.271 318.43 439.124 317.789 439.124 317.056C439.124 316.299 439.269 315.648 439.557 315.104C439.85 314.56 440.241 314.144 440.728 313.855C441.215 313.567 441.754 313.423 442.346 313.423C442.894 313.423 443.367 313.534 443.765 313.756C444.167 313.974 444.488 314.272 444.73 314.65C444.976 315.024 445.141 315.447 445.226 315.92C445.312 316.393 445.316 316.881 445.241 317.382H440.458V316.474H444.056L443.729 316.687C443.743 316.464 443.732 316.24 443.694 316.013C443.661 315.785 443.594 315.577 443.495 315.388C443.396 315.199 443.254 315.048 443.069 314.934C442.89 314.816 442.658 314.757 442.374 314.757C442.033 314.757 441.745 314.842 441.508 315.012C441.272 315.182 441.092 315.414 440.969 315.707C440.846 316.001 440.785 316.332 440.785 316.701V317.368C440.785 317.756 440.841 318.099 440.955 318.397C441.073 318.695 441.246 318.929 441.473 319.099C441.705 319.269 441.996 319.354 442.346 319.354C442.672 319.354 442.946 319.279 443.169 319.127C443.391 318.976 443.533 318.749 443.594 318.446H445.283C445.212 318.891 445.044 319.283 444.779 319.624C444.519 319.96 444.181 320.225 443.765 320.419C443.348 320.608 442.875 320.703 442.346 320.703ZM454.595 320.703C454.051 320.703 453.531 320.641 453.034 320.518C452.542 320.395 452.105 320.211 451.722 319.965C451.343 319.714 451.043 319.395 450.82 319.007C450.603 318.614 450.494 318.153 450.494 317.623H452.14C452.14 317.992 452.24 318.29 452.438 318.517C452.637 318.744 452.925 318.91 453.304 319.014C453.682 319.118 454.141 319.17 454.68 319.17C455.111 319.17 455.463 319.118 455.738 319.014C456.012 318.91 456.213 318.77 456.341 318.595C456.473 318.415 456.539 318.219 456.539 318.006C456.539 317.737 456.449 317.503 456.27 317.304C456.095 317.105 455.839 316.947 455.503 316.828L454.496 316.445V314.998L456.312 315.636C457.022 315.882 457.552 316.195 457.902 316.573C458.252 316.951 458.427 317.443 458.427 318.049C458.427 318.494 458.29 318.919 458.015 319.326C457.746 319.728 457.327 320.059 456.759 320.319C456.196 320.575 455.475 320.703 454.595 320.703ZM453.871 321.937V310.045H455.064V321.937H453.871ZM454.198 316.474L453.162 316.119C452.367 315.849 451.755 315.528 451.324 315.154C450.894 314.78 450.679 314.269 450.679 313.621C450.679 312.874 450.995 312.268 451.629 311.805C452.268 311.341 453.195 311.11 454.411 311.11C455.541 311.11 456.4 311.356 456.986 311.847C457.578 312.335 457.944 312.997 458.086 313.834H456.426C456.355 313.47 456.147 313.165 455.801 312.919C455.461 312.668 454.988 312.543 454.382 312.543C453.758 312.543 453.287 312.649 452.97 312.862C452.653 313.075 452.495 313.347 452.495 313.678C452.495 313.924 452.571 314.125 452.722 314.281C452.878 314.433 453.119 314.567 453.446 314.686L454.198 314.998V316.474ZM464.379 320.703C463.835 320.703 463.315 320.641 462.818 320.518C462.326 320.395 461.889 320.211 461.505 319.965C461.127 319.714 460.827 319.395 460.604 319.007C460.387 318.614 460.278 318.153 460.278 317.623H461.924C461.924 317.992 462.023 318.29 462.222 318.517C462.421 318.744 462.709 318.91 463.088 319.014C463.466 319.118 463.925 319.17 464.464 319.17C464.895 319.17 465.247 319.118 465.522 319.014C465.796 318.91 465.997 318.77 466.125 318.595C466.257 318.415 466.323 318.219 466.323 318.006C466.323 317.737 466.233 317.503 466.054 317.304C465.879 317.105 465.623 316.947 465.287 316.828L464.28 316.445V314.998L466.096 315.636C466.806 315.882 467.336 316.195 467.686 316.573C468.036 316.951 468.211 317.443 468.211 318.049C468.211 318.494 468.073 318.919 467.799 319.326C467.53 319.728 467.111 320.059 466.543 320.319C465.98 320.575 465.259 320.703 464.379 320.703ZM463.655 321.937V310.045H464.847V321.937H463.655ZM463.982 316.474L462.946 316.119C462.151 315.849 461.539 315.528 461.108 315.154C460.678 314.78 460.462 314.269 460.462 313.621C460.462 312.874 460.779 312.268 461.413 311.805C462.052 311.341 462.979 311.11 464.195 311.11C465.325 311.11 466.184 311.356 466.77 311.847C467.362 312.335 467.728 312.997 467.87 313.834H466.21C466.139 313.47 465.931 313.165 465.585 312.919C465.245 312.668 464.772 312.543 464.166 312.543C463.542 312.543 463.071 312.649 462.754 312.862C462.437 313.075 462.279 313.347 462.279 313.678C462.279 313.924 462.355 314.125 462.506 314.281C462.662 314.433 462.903 314.567 463.23 314.686L463.982 314.998V316.474ZM474.163 320.703C473.619 320.703 473.099 320.641 472.602 320.518C472.11 320.395 471.673 320.211 471.289 319.965C470.911 319.714 470.611 319.395 470.388 319.007C470.171 318.614 470.062 318.153 470.062 317.623H471.708C471.708 317.992 471.807 318.29 472.006 318.517C472.205 318.744 472.493 318.91 472.872 319.014C473.25 319.118 473.709 319.17 474.248 319.17C474.679 319.17 475.031 319.118 475.305 319.014C475.58 318.91 475.781 318.77 475.909 318.595C476.041 318.415 476.107 318.219 476.107 318.006C476.107 317.737 476.017 317.503 475.838 317.304C475.663 317.105 475.407 316.947 475.071 316.828L474.064 316.445V314.998L475.88 315.636C476.59 315.882 477.119 316.195 477.47 316.573C477.82 316.951 477.995 317.443 477.995 318.049C477.995 318.494 477.857 318.919 477.583 319.326C477.313 319.728 476.895 320.059 476.327 320.319C475.764 320.575 475.043 320.703 474.163 320.703ZM473.439 321.937V310.045H474.631V321.937H473.439ZM473.766 316.474L472.73 316.119C471.935 315.849 471.323 315.528 470.892 315.154C470.462 314.78 470.246 314.269 470.246 313.621C470.246 312.874 470.563 312.268 471.197 311.805C471.836 311.341 472.763 311.11 473.979 311.11C475.109 311.11 475.968 311.356 476.554 311.847C477.145 312.335 477.512 312.997 477.654 313.834H475.994C475.923 313.47 475.715 313.165 475.369 312.919C475.029 312.668 474.556 312.543 473.95 312.543C473.326 312.543 472.855 312.649 472.538 312.862C472.221 313.075 472.063 313.347 472.063 313.678C472.063 313.924 472.138 314.125 472.29 314.281C472.446 314.433 472.687 314.567 473.014 314.686L473.766 314.998V316.474Z" fill="#A52225"/>
<path d="M507.625 316.125L500.514 323.664C500.386 323.835 500.171 323.878 500 323.878C499.829 323.878 499.657 323.835 499.529 323.707C499.229 323.45 499.229 323.021 499.486 322.764L505.483 316.339H489.334C488.949 316.339 488.649 316.039 488.649 315.697C488.649 315.354 488.949 314.968 489.334 314.968H505.483L499.486 308.586C499.229 308.329 499.229 307.901 499.529 307.644C499.829 307.387 500.257 307.387 500.514 307.686L507.625 315.225C507.882 315.482 507.882 315.868 507.625 316.125Z" fill="#A52225"/>
<circle cx="319.649" cy="114.752" r="20.6412" fill="#A52225"/>
<circle cx="319.5" cy="114.5" r="34.5" fill="#A52225" fill-opacity="0.25"/>
<circle cx="319.5" cy="114.5" r="49.5" fill="#A52225" fill-opacity="0.25"/>
<path fill-rule="evenodd" clip-rule="evenodd" d="M310.618 104.948C310.618 104.663 310.843 104.432 311.12 104.432H327.174C328.005 104.432 328.679 105.125 328.679 105.98V107.837C328.679 108.692 328.005 109.386 327.174 109.386H312.625C312.348 109.386 312.123 109.617 312.123 109.902V111.759C312.123 112.044 312.348 112.275 312.625 112.275H327.174C328.005 112.275 328.679 112.968 328.679 113.823V115.681C328.679 116.536 328.005 117.229 327.174 117.229H312.625C312.348 117.229 312.123 117.46 312.123 117.745V119.603C312.123 119.888 312.348 120.119 312.625 120.119H327.174C328.005 120.119 328.679 120.812 328.679 121.667V123.525C328.679 124.38 328.005 125.073 327.174 125.073H311.12C310.843 125.073 310.618 124.842 310.618 124.557C310.618 124.272 310.843 124.041 311.12 124.041H327.174C327.451 124.041 327.676 123.81 327.676 123.525V121.667C327.676 121.382 327.451 121.151 327.174 121.151H312.625C311.794 121.151 311.12 120.458 311.12 119.603V117.745C311.12 116.89 311.794 116.197 312.625 116.197H327.174C327.451 116.197 327.676 115.966 327.676 115.681V113.823C327.676 113.538 327.451 113.307 327.174 113.307H312.625C311.794 113.307 311.12 112.614 311.12 111.759V109.902C311.12 109.047 311.794 108.353 312.625 108.353H327.174C327.451 108.353 327.676 108.122 327.676 107.837V105.98C327.676 105.695 327.451 105.464 327.174 105.464H311.12C310.843 105.464 310.618 105.233 310.618 104.948Z" fill="white"/>
</svg>
