<svg width="111" height="110" viewBox="0 0 111 110" fill="none" xmlns="http://www.w3.org/2000/svg">
<g id="piggy-bank 1" clip-path="url(#clip0_7_1719)">
<g id="Group">
<g id="Group_2">
<path id="Vector" d="M91.272 58.1394C90.3879 58.1394 89.6712 58.8561 89.6712 59.7402C89.6712 60.861 88.7594 61.7728 87.6385 61.7728C86.5179 61.7728 85.6059 60.861 85.6059 59.7402C85.6059 58.8559 84.8892 58.1394 84.0051 58.1394C83.121 58.1394 82.4043 58.8561 82.4043 59.7402C82.4043 62.6264 84.7525 64.9744 87.6385 64.9744C90.5245 64.9744 92.8728 62.6262 92.8728 59.7402C92.8728 58.8557 92.1561 58.1394 91.272 58.1394Z" fill="black"/>
</g>
</g>
<g id="Group_3">
<g id="Group_4">
<path id="Vector_2" d="M106.299 58.4009L101.793 56.9576C101.216 56.7726 100.761 56.312 100.576 55.7253C99.6268 52.7061 98.1937 49.8716 96.3171 47.3004C95.4618 46.1284 94.5107 45.0093 93.4717 43.9439C94.1364 41.0278 94.4978 37.7276 94.451 34.8764C94.3839 30.7976 93.5688 28.4053 91.9592 27.5623C91.0923 27.1076 88.454 25.7266 74.174 32.2635C73.8358 32.4182 73.52 32.6087 73.2276 32.827C72.2649 32.5683 71.2809 32.329 70.2909 32.1142C70.1717 32.0882 70.0488 32.0652 69.9287 32.0398C71.0858 29.512 71.7615 26.7665 71.8885 23.9323C71.928 23.0488 71.2442 22.3007 70.3607 22.2614C69.4797 22.2176 68.7292 22.9055 68.6899 23.789C68.4813 28.4491 66.5481 32.8339 63.2468 36.1354C61.2744 38.1079 58.9648 39.5407 56.5033 40.443C52.2346 39.844 47.8866 39.844 43.6179 40.443C41.1562 39.5407 38.8468 38.1079 36.8743 36.1354C33.3522 32.6132 31.4124 27.9303 31.4124 22.9491C31.4124 17.9678 33.3522 13.285 36.8743 9.76288C40.3965 6.24052 45.0797 4.30069 50.0606 4.30069C55.0415 4.30069 59.7247 6.24052 63.2468 9.76288C64.6622 11.1783 65.8318 12.7935 66.7232 14.5631C67.1209 15.3529 68.0836 15.6709 68.8732 15.273C69.6629 14.8755 69.9807 13.9128 69.583 13.1233C68.5382 11.0481 67.1682 9.15595 65.5111 7.49864C61.3841 3.37171 55.897 1.09888 50.0608 1.09888C44.2246 1.09888 38.7375 3.37171 34.6105 7.49864C30.4836 11.6258 28.2108 17.1127 28.2108 22.9489C28.2108 28.7851 30.4836 34.2723 34.6105 38.3992C35.801 39.5896 37.0961 40.6134 38.4659 41.471C38.4663 41.471 38.4668 41.4708 38.4672 41.4708C37.4718 41.7295 36.484 42.02 35.5071 42.3465C34.6685 42.6269 34.2161 43.5337 34.4964 44.3725C34.7766 45.211 35.6839 45.6635 36.5222 45.3833C45.2526 42.4647 54.869 42.4647 63.5994 45.3833C63.7678 45.4396 63.9389 45.4663 64.1071 45.4663C64.7767 45.4663 65.4011 45.0426 65.6252 44.3725C65.9055 43.534 65.4531 42.6269 64.6145 42.3465C63.6376 42.02 62.6498 41.7293 61.6544 41.4708C61.6548 41.4708 61.6553 41.471 61.6557 41.471C63.0258 40.6134 64.3206 39.5896 65.5111 38.3992C66.5642 37.346 67.4939 36.196 68.301 34.9737C68.7423 35.0594 69.1804 35.1492 69.612 35.2429C70.1869 35.3677 70.7593 35.5018 71.3265 35.6425C71.3086 35.7121 71.2904 35.7815 71.2756 35.8522C70.4948 39.5572 70.5455 42.834 71.4262 45.5911C72.2176 48.0693 73.6461 50.077 75.6715 51.5588C78.0586 53.305 80.9405 54.0594 83.5511 54.0594C85.5158 54.0594 87.3272 53.6318 88.6575 52.8784C90.1622 52.0261 91.423 50.2302 92.4209 47.5339C92.8822 48.0723 93.3194 48.6238 93.7314 49.1884C95.4023 51.4774 96.6778 54.0001 97.5226 56.686C98.0187 58.2636 99.2501 59.505 100.817 60.0071L105.322 61.4504C106.505 61.8292 107.299 62.9174 107.299 64.1587V71.6299C107.299 72.8713 106.505 73.9595 105.322 74.3382L98.0629 76.6635C96.9015 77.0358 95.9186 77.834 95.2953 78.9112C92.4432 83.8401 87.9592 87.919 81.967 91.0344C81.2748 91.3947 80.7953 92.039 80.6509 92.8026L78.3259 105.114C78.2616 105.453 77.9645 105.699 77.6192 105.699H70.0595C69.7143 105.699 69.4172 105.453 69.3529 105.114L68.0651 98.3099C67.8116 96.9712 66.5561 96.0819 65.2047 96.2867C61.9483 96.7791 58.5929 97.0285 55.2321 97.0285C52.7317 97.0285 50.2634 96.8891 47.8952 96.6139C46.5857 96.4633 45.3658 97.356 45.1211 98.6489L43.8974 105.114C43.8331 105.453 43.536 105.699 43.1907 105.699H35.631C35.2858 105.699 34.9887 105.453 34.9236 105.109L32.6849 93.4808C32.5407 92.7317 32.0702 92.0947 31.3932 91.7331C21.1787 86.2801 15.7797 77.1699 15.7797 65.3879C15.7797 59.435 17.0821 54.1711 19.6505 49.7419C22.0473 45.6085 25.548 42.191 30.0552 39.5838C30.8205 39.141 31.0819 38.1618 30.6394 37.3963C30.1968 36.631 29.2175 36.37 28.452 36.8121C19.7124 41.8678 14.4412 49.6675 12.9899 59.574V59.5738C12.8359 59.5598 12.6816 59.5465 12.528 59.5306C12.556 58.4617 12.3626 57.3832 11.9415 56.3365C11.0127 54.0278 9.10492 52.3615 7.08088 52.0914C5.48588 51.8778 3.96801 52.555 2.91463 53.9468C1.3873 55.965 1.63631 57.5622 2.11391 58.5466C2.92021 60.208 4.99281 61.3832 8.43225 62.122C8.33772 62.2636 8.23373 62.4058 8.11986 62.5487C6.08766 65.0974 3.69344 65.6609 2.13883 65.714C1.22875 65.7447 0.5 66.4754 0.5 67.3861V67.3939C0.5 68.2921 1.20877 69.0247 2.10617 69.0658C2.22111 69.0711 2.34121 69.0739 2.46625 69.0739C4.43336 69.0739 7.59049 68.3484 10.6237 64.545C11.1025 63.9448 11.4927 63.3114 11.7926 62.657C12.0947 62.6911 12.3849 62.7204 12.6629 62.7461C12.6629 62.7455 12.6629 62.7451 12.6632 62.7444C12.6086 63.612 12.5783 64.4922 12.5783 65.3879C12.5783 72.054 14.1675 77.9977 17.3014 83.0545C20.1911 87.7166 24.3283 91.5339 29.6023 94.4047L31.7787 105.709C32.1287 107.558 33.7488 108.901 35.631 108.901H43.1907C45.073 108.901 46.6931 107.558 47.0431 105.709L48.1496 99.8634C50.4475 100.107 52.8267 100.23 55.2319 100.23C58.5319 100.23 61.828 100 65.0404 99.5465L66.2067 105.709C66.5569 107.559 68.1771 108.901 70.0591 108.901H77.6188C79.5011 108.901 81.1212 107.558 81.4714 105.708L83.7352 93.7221C90.1307 90.3402 94.9513 85.8977 98.0661 80.5146C98.2906 80.1266 98.6363 79.8419 99.0394 79.7128L106.299 77.3875C108.812 76.5821 110.5 74.2684 110.5 71.6295V64.1583C110.5 61.5196 108.812 59.2059 106.299 58.4009ZM91.0089 39.375C90.3928 44.6443 88.74 49.1517 87.0792 50.0923C85.1916 51.1616 80.8335 51.368 77.5614 48.9744C74.2855 46.5781 73.1952 42.2687 74.408 36.5122C74.5298 35.9341 74.9406 35.4337 75.5067 35.1746C83.5212 31.5059 88.1419 30.306 89.8585 30.306C90.1176 30.306 90.3105 30.3333 90.439 30.3836C90.9546 30.9332 91.6309 34.0572 91.0089 39.375ZM4.99475 57.1486C4.8291 56.807 5.22012 56.2065 5.46805 55.8787C5.861 55.3596 6.22301 55.2535 6.4965 55.2535C6.5543 55.2535 6.60822 55.2582 6.65764 55.2649C7.39369 55.363 8.42494 56.173 8.97129 57.531C9.09998 57.8507 9.26713 58.3803 9.30623 59.0407C7.09012 58.5816 5.36836 57.9197 4.99475 57.1486Z" fill="black"/>
</g>
</g>
<g id="Group_5">
<g id="Group_6">
<path id="Vector_3" d="M51.6153 21.1142V15.3856C53.5908 15.5268 54.3247 16.4298 55.0019 16.4298C55.8486 16.4298 56.2437 15.3575 56.2437 14.8212C56.2437 13.4383 53.5343 12.8457 51.6153 12.7892V12.027C51.6153 11.6884 51.1918 11.3779 50.7686 11.3779C50.2886 11.3779 49.95 11.6884 49.95 12.027V12.8453C47.269 13.1276 44.588 14.5387 44.588 18.0946C44.588 21.707 47.4102 22.723 49.95 23.626V30.258C47.0713 30.0322 46.3095 28.0567 45.3782 28.0567C44.6726 28.0567 44.0801 28.988 44.0801 29.6654C44.0801 31.0482 46.4507 32.939 49.95 32.9955V33.8704C49.95 34.2089 50.2888 34.5194 50.7686 34.5194C51.1921 34.5194 51.6153 34.2089 51.6153 33.8704V32.9109C54.6633 32.4874 56.7516 30.5684 56.7516 27.0972C56.7516 23.2592 54.0705 22.0172 51.6153 21.1142ZM50.1193 20.5782C48.6236 20.0138 47.4102 19.4213 47.4102 17.8127C47.4102 16.3451 48.5389 15.6396 50.1193 15.4421V20.5782ZM51.4458 30.2015V24.2469C52.8285 24.8394 53.9292 25.6296 53.9292 27.4074C53.9292 29.0164 52.9697 29.9194 51.4458 30.2015Z" fill="black"/>
</g>
</g>
</g>
<defs>
<clipPath id="clip0_7_1719">
<rect width="110" height="110" fill="white" transform="translate(0.5)"/>
</clipPath>
</defs>
</svg>
